<?xml version="1.0" encoding="utf-8"?>
<!-- Generator: Adobe Illustrator 18.0.0, SVG Export Plug-In . SVG Version: 6.00 Build 0)  -->
<!DOCTYPE svg PUBLIC "-//W3C//DTD SVG 1.1//EN" "http://www.w3.org/Graphics/SVG/1.1/DTD/svg11.dtd">
<svg version="1.1" id="Layer_1" xmlns="http://www.w3.org/2000/svg" xmlns:xlink="http://www.w3.org/1999/xlink" x="0px" y="0px"
	 viewBox="0 0 118 29.7" enable-background="new 0 0 118 29.7" xml:space="preserve">
<g>
	<g>
		<path fill="#1E2529" d="M0.1,29.2l4.3-9.4c0-0.1,0.2-0.2,0.2-0.2h0.1c0.1,0,0.2,0.1,0.2,0.2l4.2,9.4c0.1,0.2,0,0.4-0.2,0.4H8.1
			c-0.2,0-0.3-0.1-0.3-0.2l-0.9-1.9H2.3c-0.3,0.6-0.6,1.3-0.8,1.9c0,0.1-0.2,0.2-0.3,0.2H0.3C0.1,29.6,0,29.4,0.1,29.2z M6.4,26.3
			l-1.7-3.8H4.6l-1.7,3.8H6.4z"/>
		<path fill="#1E2529" d="M15.8,20.1c0-0.1,0.1-0.3,0.3-0.3H17c0.1,0,0.3,0.1,0.3,0.3v8.2h4.3c0.2,0,0.3,0.1,0.3,0.3v0.8
			c0,0.1-0.1,0.3-0.3,0.3H16c-0.2,0-0.3-0.1-0.3-0.3V20.1z"/>
		<path fill="#1E2529" d="M28.2,20.1c0-0.1,0.1-0.3,0.3-0.3h6.1c0.2,0,0.3,0.1,0.3,0.3v0.8c0,0.1-0.1,0.3-0.3,0.3h-5V24h4.3
			c0.1,0,0.3,0.1,0.3,0.3V25c0,0.2-0.1,0.3-0.3,0.3h-4.3v3h5c0.2,0,0.3,0.1,0.3,0.3v0.8c0,0.1-0.1,0.3-0.3,0.3h-6.1
			c-0.2,0-0.3-0.1-0.3-0.3V20.1z"/>
		<path fill="#1E2529" d="M42.2,20.1c0-0.1,0.1-0.3,0.3-0.3h3.4c1.7,0,3,1.3,3,3c0,1.3-0.7,2.2-1.6,2.6l1.9,3.7
			c0.1,0.2,0,0.4-0.2,0.4h-1.1c-0.1,0-0.2-0.1-0.2-0.1l-1.8-3.7h-2.1v3.5c0,0.1-0.1,0.3-0.3,0.3h-0.9c-0.2,0-0.3-0.1-0.3-0.3V20.1z
			 M45.7,24.6c0.9,0,1.7-0.8,1.7-1.7c0-0.9-0.8-1.7-1.7-1.7h-2.1v3.4H45.7z"/>
		<path fill="#1E2529" d="M58.3,21.2h-2.5c-0.2,0-0.3-0.1-0.3-0.3v-0.8c0-0.1,0.1-0.3,0.3-0.3h6.5c0.2,0,0.3,0.1,0.3,0.3v0.8
			c0,0.1-0.1,0.3-0.3,0.3h-2.5v8.2c0,0.1-0.1,0.3-0.3,0.3h-0.9c-0.1,0-0.3-0.1-0.3-0.3V21.2z"/>
	</g>
	<g>
		<path fill="#EF610E" d="M69.5,20.1c0-0.1,0.1-0.3,0.3-0.3h1.7c0.1,0,0.3,0.1,0.3,0.3v7.4h3.9c0.2,0,0.3,0.1,0.3,0.3v1.5
			c0,0.1-0.1,0.3-0.3,0.3h-5.8c-0.2,0-0.3-0.1-0.3-0.3V20.1z"/>
		<path fill="#EF610E" d="M81.5,29.2l4.3-9.4c0-0.1,0.1-0.2,0.2-0.2h0.1c0.1,0,0.2,0.1,0.2,0.2l4.3,9.4c0.1,0.2,0,0.4-0.2,0.4H89
			c-0.3,0-0.4-0.1-0.5-0.3L88,28.1h-3.8l-0.5,1.1c-0.1,0.2-0.2,0.3-0.5,0.3h-1.5C81.5,29.6,81.4,29.4,81.5,29.2z M87.2,26.3L86.1,24
			h0l-1,2.3H87.2z"/>
		<path fill="#EF610E" d="M97.3,20.1c0-0.1,0.1-0.3,0.3-0.3h3.8c1.6,0,3,1.1,3,2.6c0,1.1-1,1.8-1.6,2.2c0.7,0.3,1.9,1,1.9,2.3
			c0,1.6-1.4,2.7-3,2.7h-4c-0.2,0-0.3-0.1-0.3-0.3V20.1z M101.1,23.8c0.5,0,1-0.4,1-1c0-0.6-0.4-0.9-1-0.9h-1.6v1.9H101.1z
			 M101.3,27.6c0.5,0,1-0.4,1-1c0-0.6-0.6-1-1.1-1h-1.7v2H101.3z"/>
		<path fill="#EF610E" d="M111.2,28.3l0.7-1.2c0.1-0.2,0.4-0.2,0.5-0.1c0.1,0,1.1,0.8,2,0.8c0.6,0,1-0.3,1-0.8c0-0.6-0.5-1-1.4-1.4
			c-1.2-0.5-2.7-1.4-2.7-3.1c0-1.4,1.1-2.8,3.2-2.8c1.4,0,2.6,0.7,3,1c0.2,0.1,0.1,0.3,0.1,0.4l-0.7,1.1c-0.1,0.2-0.3,0.3-0.5,0.2
			c-0.1-0.1-1.1-0.8-2-0.8c-0.5,0-0.9,0.3-0.9,0.7c0,0.5,0.4,0.9,1.5,1.3c1.1,0.4,2.8,1.3,2.8,3.2c0,1.4-1.2,2.9-3.3,2.9
			c-1.8,0-2.8-0.8-3.1-1.1C111.1,28.5,111.1,28.5,111.2,28.3z"/>
	</g>
	<path fill="#1E2529" d="M117.1,12.2h-50V7.5c0-0.3-0.1-0.5-0.3-0.7L59,0l-7.8,6.9C51,7,50.9,7.3,50.9,7.5v4.7h-50
		c-0.5,0-0.9,0.4-0.9,0.9c0,0.5,0.4,0.9,0.9,0.9h51.8V8L59,2.4L65.3,8v6.1h51.8c0.5,0,0.9-0.4,0.9-0.9
		C118,12.6,117.6,12.2,117.1,12.2z"/>
	<path fill="#EF610E" d="M59,10.1c-1,0-1.9,0.8-1.9,1.9c0,1,0.8,1.9,1.9,1.9c1,0,1.9-0.8,1.9-1.9C60.9,10.9,60,10.1,59,10.1"/>
</g>
</svg>
