<?xml version="1.0" encoding="utf-8"?>
<!-- Generator: Adobe Illustrator 21.1.0, SVG Export Plug-In . SVG Version: 6.00 Build 0)  -->
<svg version="1.1" id="Layer_1" xmlns="http://www.w3.org/2000/svg" xmlns:xlink="http://www.w3.org/1999/xlink" x="0px" y="0px"
	 viewBox="0 0 202.8 192" style="enable-background:new 0 0 202.8 192;" xml:space="preserve">
<style type="text/css">
	.st0{fill:#FFFFFF;stroke:#000000;stroke-width:5;stroke-miterlimit:10;}
	.st1{fill:none;stroke:#D4C8E3;stroke-width:3;stroke-miterlimit:10;}
	.st2{fill:#D4C8E3;stroke:#D4C8E3;stroke-width:3;stroke-miterlimit:10;}
	.st3{fill:#4F357A;stroke:#000000;stroke-width:5;stroke-miterlimit:10;}
	.st4{fill:#FFFFFF;}
	.st5{fill:#4F357A;}
</style>
<title>Artboard 1</title>
<g>
	<polygon class="st0" points="182.1,142.6 182.1,49.5 101.4,2.9 20.8,49.5 20.8,142.6 101.4,189.1 	"/>
	<polyline class="st1" points="159.4,79.7 159.4,59.2 120.6,37.3 	"/>
	<g>
		<polyline class="st1" points="43,79.7 43,59.2 81.8,37.3 		"/>
		<circle class="st2" cx="81.8" cy="37.3" r="2.5"/>
	</g>
	<g>
		<polyline class="st1" points="64.8,111.7 64.8,132.7 55.8,143.9 		"/>
		<polyline class="st1" points="88.5,111.7 88.5,120.3 88.5,158.7 		"/>
		<line class="st1" x1="43" y1="111.7" x2="43" y2="135.2"/>
		<polyline class="st1" points="75.1,148.8 75.1,130 88.5,118.4 		"/>
		<circle class="st2" cx="43" cy="137.1" r="1.9"/>
		<circle class="st2" cx="54.8" cy="145" r="1.9"/>
		<circle class="st2" cx="75.1" cy="150.6" r="1.9"/>
		<circle class="st2" cx="88.5" cy="159.9" r="1.9"/>
	</g>
	<line class="st1" x1="101.4" y1="111.7" x2="101.4" y2="166.9"/>
	<g>
		<polyline class="st1" points="137.7,112.1 137.7,133.1 146.6,144.2 		"/>
		<polyline class="st1" points="113.9,112.1 113.9,120.6 113.9,159 		"/>
		<line class="st1" x1="159.4" y1="112.1" x2="159.4" y2="135.5"/>
		<polyline class="st1" points="127.3,149.1 127.3,130.4 113.9,118.8 		"/>
		<circle class="st2" cx="159.4" cy="137.4" r="1.9"/>
		<circle class="st2" cx="147.6" cy="145.3" r="1.9"/>
		<circle class="st2" cx="127.3" cy="150.8" r="1.9"/>
		<circle class="st2" cx="113.9" cy="160.2" r="1.9"/>
	</g>
	<polygon class="st1" points="175.4,138.4 175.4,53.7 101.4,11.3 27.5,53.7 27.5,138.4 101.4,180.7 	"/>
	<rect x="2.5" y="76.5" class="st3" width="197.8" height="39.1"/>
	<g>
		<path class="st4" d="M49,105.6H35.5V86H49v3.9h-9.5v3.9h6.4v3.9h-6.4v3.9H49V105.6z"/>
		<path class="st4" d="M67.4,105.6h-4.2l-7.6-12.9v12.9h-3.9V86h4.2l7.6,12.9V86h3.9V105.6z"/>
		<path class="st4" d="M86.7,103.6c-1.8,1.6-4.2,2.4-6.6,2.4c-1.8,0-3.6-0.5-5.1-1.4c-0.7-0.5-1.4-1-2-1.6c-0.6-0.6-1.2-1.3-1.6-2
			c-0.4-0.8-0.8-1.6-1-2.4c-0.2-0.9-0.4-1.8-0.4-2.7c0-0.9,0.1-1.8,0.4-2.7c0.2-0.8,0.6-1.7,1-2.4c0.5-0.8,1-1.4,1.6-2
			c1.2-1.2,2.8-2.1,4.5-2.6c2-0.6,4.2-0.5,6.2,0.3c1.1,0.4,2.1,1,3,1.8l-2.1,3.4c-0.6-0.6-1.3-1.1-2.1-1.4c-1.6-0.7-3.3-0.7-4.9,0
			c-0.7,0.3-1.4,0.8-2,1.3c-0.6,0.6-1,1.3-1.3,2c-0.3,0.8-0.5,1.6-0.5,2.4c0,0.8,0.2,1.7,0.5,2.4c0.6,1.5,1.8,2.7,3.3,3.3
			c0.8,0.3,1.6,0.5,2.4,0.5c0.5,0,1-0.1,1.4-0.2c0.5-0.1,0.9-0.3,1.3-0.5v-5.6h3.8L86.7,103.6z"/>
		<path class="st4" d="M93.6,105.6h-3.9V86h3.9v7.8h7.8V86h3.9v19.6h-3.9v-7.9h-7.8V105.6z"/>
		<path class="st4" d="M124.5,105.6h-3.9v-3.9h-7.9v3.9h-3.9V93.8c0-1.1,0.2-2.1,0.6-3.1c0.4-0.9,1-1.8,1.7-2.5
			c0.7-0.7,1.6-1.3,2.5-1.7c2-0.8,4.2-0.8,6.1,0c1.9,0.8,3.4,2.3,4.2,4.2c0.4,1,0.6,2,0.6,3.1L124.5,105.6z M120.6,97.8v-3.9
			c0-0.5-0.1-1-0.3-1.5c-0.4-0.9-1.1-1.7-2.1-2.1c-1-0.4-2-0.4-3,0c-1,0.4-1.7,1.1-2.2,2.1c-0.2,0.5-0.3,1-0.3,1.5v3.9L120.6,97.8z"
			/>
		<path class="st4" d="M143.5,103.6c-2.6,2.2-6,3-9.3,2.1c-0.8-0.2-1.7-0.6-2.4-1c-1.5-0.9-2.8-2.1-3.6-3.7c-0.4-0.8-0.8-1.6-1-2.4
			c-0.5-1.8-0.5-3.6,0-5.4c0.2-0.9,0.6-1.7,1-2.4c1.3-2.3,3.5-4,6.1-4.7c0.9-0.3,1.8-0.4,2.7-0.4c1.2,0,2.4,0.2,3.5,0.6
			c1.1,0.4,2.2,1,3.1,1.8l-2.1,3.4c-0.6-0.6-1.2-1.1-2-1.4c-0.8-0.3-1.6-0.5-2.5-0.5c-0.8,0-1.7,0.2-2.4,0.5c-0.7,0.3-1.4,0.8-2,1.3
			c-0.6,0.6-1,1.3-1.3,2c-0.3,0.8-0.5,1.6-0.5,2.4c0,0.8,0.2,1.6,0.5,2.4c0.6,1.5,1.8,2.7,3.3,3.3c0.8,0.3,1.6,0.5,2.4,0.5
			c0.8,0,1.7-0.2,2.5-0.5c0.8-0.3,1.4-0.8,2-1.4L143.5,103.6z"/>
		<path class="st4" d="M149.7,105.6h-3.9V86h3.9v9.8L157,86h4.5l-6.2,8.3l6.2,11.3H157l-4.3-7.9l-3,4L149.7,105.6z"/>
	</g>
	<g>
		<path class="st5" d="M74.3,65.2c0,0.4-0.1,0.8-0.3,1.2c-0.3,0.7-0.8,1.3-1.5,1.6c-0.4,0.2-0.8,0.2-1.2,0.2c-0.4,0-0.7-0.1-1-0.2
			c-0.3-0.1-0.6-0.3-0.9-0.6c-0.3,0.2-0.6,0.4-0.9,0.6c-0.3,0.1-0.7,0.2-1.1,0.2c-0.4,0-0.8,0-1.2-0.2c-0.7-0.3-1.3-0.9-1.6-1.6
			c-0.2-0.4-0.2-0.8-0.2-1.2v-7h2v7c0,0.1,0,0.3,0.1,0.4c0.2,0.5,0.8,0.7,1.3,0.5c0.1,0,0.2-0.1,0.3-0.2c0.1-0.1,0.2-0.2,0.2-0.3
			c0.1-0.1,0.1-0.3,0.1-0.4v-7h2v7c0,0.1,0,0.3,0.1,0.4c0,0.1,0.1,0.2,0.2,0.3c0.3,0.3,0.7,0.4,1.1,0.2c0.1,0,0.2-0.1,0.3-0.2
			c0.1-0.1,0.2-0.2,0.2-0.3c0.1-0.1,0.1-0.3,0.1-0.4v-7h2L74.3,65.2z"/>
		<path class="st5" d="M83.8,68.1h-2v-2h-3.9v2h-2v-5.9c0-0.5,0.1-1.1,0.3-1.5c0.2-0.5,0.5-0.9,0.8-1.2c0.4-0.4,0.8-0.7,1.2-0.8
			c1-0.4,2.1-0.4,3.1,0c0.9,0.4,1.7,1.2,2.1,2.1c0.2,0.5,0.3,1,0.3,1.5L83.8,68.1z M81.8,64.1v-2c0-0.3-0.1-0.5-0.2-0.8
			c-0.2-0.5-0.6-0.8-1.1-1c-0.5-0.2-1-0.2-1.5,0c-0.2,0.1-0.4,0.2-0.6,0.4c-0.2,0.2-0.3,0.4-0.4,0.6c-0.1,0.2-0.2,0.5-0.2,0.8v2
			H81.8z"/>
		<path class="st5" d="M89.4,68.1h-2v-7.9h-3v-2h7.9v2h-3L89.4,68.1z"/>
		<path class="st5" d="M100.1,68.1h-6.8v-9.9h6.8v2h-4.8v2h3.2v2h-3.2v2h4.8V68.1z"/>
		<path class="st5" d="M103.5,68.1h-2v-9.9h3.9c0.3,0,0.7,0,1,0.1c0.3,0.1,0.6,0.2,0.9,0.4c0.3,0.2,0.6,0.4,0.8,0.6
			c0.5,0.5,0.8,1.1,1,1.7c0.2,0.7,0.2,1.3,0,2c-0.1,0.3-0.2,0.6-0.4,0.9c-0.2,0.3-0.4,0.6-0.6,0.8c-0.2,0.2-0.5,0.5-0.8,0.6l1.1,2.6
			h-2.1l-0.9-2h-2.2L103.5,68.1z M103.5,60.2v3.9h2c0.3,0,0.5,0,0.8-0.2c0.5-0.2,0.8-0.6,1-1c0.2-0.5,0.2-1,0-1.5
			c-0.2-0.5-0.5-0.8-1-1c-0.2-0.1-0.5-0.2-0.8-0.2L103.5,60.2z"/>
		<path class="st5" d="M117.6,68.1h-6.9v-9.9h2v7.9h4.9L117.6,68.1z"/>
		<path class="st5" d="M127.9,63.2c0,0.5-0.1,0.9-0.2,1.3c-0.1,0.4-0.3,0.8-0.5,1.2c-0.2,0.4-0.5,0.7-0.8,1c-0.3,0.3-0.6,0.6-1,0.8
			c-0.4,0.2-0.8,0.4-1.2,0.5c-0.9,0.2-1.8,0.2-2.7,0c-1.3-0.4-2.4-1.2-3.1-2.3c-0.2-0.4-0.4-0.8-0.5-1.2c-0.4-1.3-0.2-2.7,0.5-3.9
			c0.2-0.4,0.5-0.7,0.8-1c0.3-0.3,0.6-0.6,1-0.8c0.4-0.2,0.8-0.4,1.2-0.5c0.9-0.2,1.8-0.2,2.7,0c1.7,0.5,3.1,1.8,3.6,3.6
			C127.9,62.3,127.9,62.7,127.9,63.2z M125.9,63.2c0-0.4-0.1-0.8-0.2-1.2c-0.3-0.8-0.9-1.4-1.7-1.7c-0.8-0.3-1.7-0.3-2.4,0
			c-0.4,0.2-0.7,0.4-1,0.7c-0.3,0.3-0.5,0.6-0.7,1c-0.2,0.4-0.3,0.8-0.2,1.2c0,0.4,0.1,0.8,0.2,1.2c0.3,0.7,1,1.3,1.7,1.6
			c0.8,0.3,1.7,0.3,2.4,0c0.4-0.2,0.7-0.4,1-0.7c0.3-0.3,0.5-0.6,0.7-1C125.9,64,126,63.6,125.9,63.2L125.9,63.2z"/>
		<path class="st5" d="M138.9,63.2c0,0.5-0.1,0.9-0.2,1.3c-0.1,0.4-0.3,0.8-0.5,1.2c-0.2,0.4-0.5,0.7-0.8,1c-0.3,0.3-0.6,0.6-1,0.8
			c-0.4,0.2-0.8,0.4-1.2,0.5c-0.9,0.2-1.8,0.2-2.7,0c-1.3-0.4-2.4-1.2-3.1-2.3c-0.2-0.4-0.4-0.8-0.5-1.2c-0.4-1.3-0.2-2.7,0.5-3.9
			c0.2-0.4,0.5-0.7,0.8-1c0.3-0.3,0.6-0.6,1-0.8c0.4-0.2,0.8-0.4,1.2-0.5c0.9-0.2,1.8-0.2,2.7,0c1.7,0.5,3.1,1.8,3.6,3.6
			C138.8,62.3,138.9,62.7,138.9,63.2z M136.9,63.2c0-0.4-0.1-0.8-0.2-1.2c-0.3-0.8-0.9-1.3-1.6-1.7c-0.8-0.3-1.7-0.3-2.4,0
			c-0.4,0.2-0.7,0.4-1,0.7c-0.3,0.3-0.5,0.6-0.7,1c-0.2,0.4-0.3,0.8-0.2,1.2c0,0.4,0.1,0.8,0.2,1.2c0.3,0.7,0.9,1.3,1.7,1.6
			c0.8,0.3,1.6,0.3,2.4,0c0.4-0.2,0.7-0.4,1-0.7c0.3-0.3,0.5-0.6,0.7-1C136.8,64,136.9,63.6,136.9,63.2L136.9,63.2z"/>
	</g>
	<circle class="st2" cx="101.4" cy="168.7" r="1.9"/>
	<circle class="st2" cx="120.6" cy="37.3" r="2.5"/>
	<polygon points="202.8,117.4 182.1,117.4 182.1,125.7 202.8,118 	"/>
	<polygon points="0,117.4 0,118 20.8,125.7 20.8,117.4 	"/>
</g>
</svg>
