<?xml version="1.0" ?><svg height="512" id="svg2" version="1.1" width="512" xmlns="http://www.w3.org/2000/svg" xmlns:cc="http://creativecommons.org/ns#" xmlns:dc="http://purl.org/dc/elements/1.1/" xmlns:inkscape="http://www.inkscape.org/namespaces/inkscape" xmlns:rdf="http://www.w3.org/1999/02/22-rdf-syntax-ns#" xmlns:sodipodi="http://sodipodi.sourceforge.net/DTD/sodipodi-0.dtd" xmlns:svg="http://www.w3.org/2000/svg"><defs id="defs4"><clipPath clipPathUnits="userSpaceOnUse" id="clipPath3847"><rect height="401.85031" id="rect3849" ry="24.940269" style="fill:#005cc8;fill-opacity:1;stroke:none" width="405.50885" x="192.91168" y="341.59683"/></clipPath><clipPath clipPathUnits="userSpaceOnUse" id="clipPath4206"><rect height="342.67416" id="rect4208" ry="21.83189" style="fill:#005ad2;fill-opacity:1;stroke:none" width="342.67416" x="275.56522" y="396.76877"/></clipPath><clipPath clipPathUnits="userSpaceOnUse" id="clipPath2999"><rect height="441.32111" id="rect3001" rx="167.47484" ry="174.24339" style="fill:#1182b4;fill-opacity:1;stroke:none" width="424.17783" x="189.56151" y="296.3754"/></clipPath></defs><g id="layer1" transform="translate(0,-540.36218)"><rect height="506.55707" id="rect3851" rx="200" ry="200" style="fill:#1182b4;fill-opacity:1;stroke:none" width="506.55707" x="3.1982057" y="544.98157"/><g clip-path="url(#clipPath2999)" id="g4145" style="opacity:0.48961247;fill:#000000;fill-opacity:0.05882353" transform="matrix(1.1942092,0,0,1.1478197,-223.17789,204.79606)"><g id="g4147" style="fill:#000000;fill-opacity:0.05882353;stroke:none"><path d="m 561.53848,561.01605 c 0,61.06995 -50.79847,110.57692 -113.46155,110.57692 l 707.10677,707.10683 c 62.6631,0 113.4616,-49.507 113.4616,-110.577 z" id="path4149" style="fill:#000000;fill-opacity:0.05882353"/><path d="m 448.07693,671.59297 c -31.86024,0 -60.65337,-12.79797 -81.26213,-33.40672 l 707.1068,707.10675 c 20.6087,20.6088 49.4019,33.4068 81.2621,33.4068 z" id="path4151" style="fill:#000000;fill-opacity:0.05882353"/><path d="m 366.8148,638.18625 c -19.92477,-19.92478 -32.19941,-47.15048 -32.19941,-77.1702 l 707.10681,707.10675 c 0,30.0197 12.2746,57.2455 32.1994,77.1702 z" id="path4153" style="fill:#000000;fill-opacity:0.05882353"/><path d="m 334.61539,561.01605 c 0,-61.06994 50.79847,-110.57692 113.46154,-110.57692 l 707.10677,707.10677 c -62.6631,0 -113.4615,49.507 -113.4615,110.5769 z" id="path4155" style="fill:#000000;fill-opacity:0.05882353"/><path d="m 448.07693,450.43913 c 31.86024,0 60.65338,12.79797 81.26214,33.40672 l 707.10673,707.10675 c -20.6087,-20.6087 -49.4018,-33.4067 -81.2621,-33.4067 z" id="path4157" style="fill:#000000;fill-opacity:0.05882353"/><path d="m 529.33907,483.84585 c 19.92477,19.92478 32.19941,47.15049 32.19941,77.1702 l 707.10682,707.10675 c 0,-30.0197 -12.2747,-57.2454 -32.1995,-77.1702 z" id="path4159" style="fill:#000000;fill-opacity:0.05882353"/></g><path d="m 561.53848,561.01605 c 0,61.06995 -50.79847,110.57692 -113.46155,110.57692 -62.66307,0 -113.46154,-49.50697 -113.46154,-110.57692 0,-61.06994 50.79847,-110.57692 113.46154,-110.57692 62.66308,0 113.46155,49.50698 113.46155,110.57692 z" id="path4111" style="fill:#000000;fill-opacity:0.05882353;stroke:none"/></g><path d="m 410.8958,700.26423 c -11.11503,5.05229 -23.09617,8.37236 -35.51037,9.96023 12.70289,-7.65061 22.51877,-19.7761 27.13801,-34.35556 -11.98114,7.21755 -25.26145,12.26984 -39.2635,15.15686 -11.40374,-12.41419 -27.4267,-19.63174 -45.61495,-19.63174 -33.9225,0 -61.6379,27.7154 -61.6379,61.92661 0,4.90793 0.5774,9.67152 1.58786,14.14641 -51.38899,-2.59832 -97.14828,-27.28235 -127.60637,-64.66929 -5.34099,9.09413 -8.37235,19.7761 -8.37235,31.03548 0,21.50832 10.82633,40.56267 27.57105,51.389 -10.24892,0 -19.77609,-2.88703 -28.14846,-7.21756 0,0 0,0 0,0.43306 0,30.02501 21.36396,55.14209 49.65678,60.77185 -5.19665,1.4434 -10.68199,2.16522 -16.31167,2.16522 -3.89749,0 -7.79497,-0.43302 -11.5481,-1.15484 7.79496,24.39532 30.45809,42.58365 57.74044,43.01667 -21.07526,16.74468 -47.78021,26.56054 -76.93913,26.56054 -4.90793,0 -9.81588,-0.28868 -14.72381,-0.86604 27.42671,17.61085 60.05005,27.85973 94.98301,27.85973 113.74865,0 176.25267,-94.40555 176.25267,-176.25267 0,-2.74267 0,-5.34099 -0.14435,-8.08366 12.12549,-8.66107 22.51878,-19.63175 30.89114,-32.1903 z" id="path4032" style="fill:#ffffff"/></g></svg>