<?xml version="1.0" encoding="utf-8"?>
<!-- Generator: Adobe Illustrator 18.0.0, SVG Export Plug-In . SVG Version: 6.00 Build 0)  -->
<!DOCTYPE svg PUBLIC "-//W3C//DTD SVG 1.1//EN" "http://www.w3.org/Graphics/SVG/1.1/DTD/svg11.dtd">
<svg version="1.1" id="Layer_1" xmlns="http://www.w3.org/2000/svg" xmlns:xlink="http://www.w3.org/1999/xlink" x="0px" y="0px"
	 viewBox="0 192 512 128" enable-background="new 0 192 512 128" xml:space="preserve">
<rect y="192" fill="#FFFFFF" width="512" height="128"/>
<g enable-background="new    ">
	<path fill="#353535" d="M95.8,283.2l21.5-55.9h8l22.9,55.9h-8.4l-6.5-16.9h-23.4l-6.1,16.9H95.8z M111.9,260.3h18.9l-5.8-15.5
		c-1.8-4.7-3.1-8.6-4-11.6c-0.7,3.6-1.7,7.1-3,10.7L111.9,260.3z"/>
	<path fill="#353535" d="M159.5,283.2h-6.4v-55.9h6.9v19.9c2.9-3.6,6.6-5.5,11.1-5.5c2.5,0,4.8,0.5,7.1,1.5c2.2,1,4.1,2.4,5.5,4.2
		c1.4,1.8,2.6,4,3.4,6.6c0.8,2.6,1.2,5.3,1.2,8.2c0,6.9-1.7,12.3-5.1,16.1c-3.4,3.8-7.5,5.7-12.3,5.7c-4.8,0-8.5-2-11.2-6V283.2z
		 M159.4,262.7c0,4.9,0.7,8.4,2,10.5c2.2,3.5,5.1,5.3,8.8,5.3c3,0,5.6-1.3,7.8-3.9c2.2-2.6,3.3-6.5,3.3-11.6c0-5.3-1-9.2-3.1-11.7
		c-2.1-2.5-4.6-3.8-7.6-3.8c-3,0-5.6,1.3-7.8,3.9C160.5,254,159.4,257.7,159.4,262.7z"/>
	<path fill="#353535" d="M194,263c0-7.5,2.1-13,6.3-16.7c3.5-3,7.7-4.5,12.7-4.5c5.6,0,10.1,1.8,13.6,5.5c3.5,3.6,5.3,8.7,5.3,15.1
		c0,5.2-0.8,9.3-2.3,12.3c-1.6,3-3.8,5.3-6.8,7c-3,1.7-6.2,2.5-9.8,2.5c-5.7,0-10.2-1.8-13.7-5.5C195.7,275,194,269.8,194,263z
		 M201,263c0,5.2,1.1,9.1,3.4,11.6c2.3,2.6,5.1,3.9,8.5,3.9c3.4,0,6.2-1.3,8.5-3.9c2.3-2.6,3.4-6.5,3.4-11.9c0-5-1.1-8.8-3.4-11.4
		c-2.3-2.6-5.1-3.9-8.5-3.9c-3.4,0-6.3,1.3-8.5,3.8C202.2,253.9,201,257.8,201,263z"/>
	<path fill="#353535" d="M266.5,283.2v-5.9c-3.2,4.6-7.4,6.9-12.8,6.9c-2.4,0-4.6-0.5-6.7-1.4c-2.1-0.9-3.6-2.1-4.6-3.4
		c-1-1.4-1.7-3.1-2.1-5.1c-0.3-1.3-0.4-3.5-0.4-6.4v-25.1h6.9v22.5c0,3.6,0.1,6,0.4,7.2c0.4,1.8,1.3,3.2,2.7,4.2
		c1.4,1,3.1,1.5,5.2,1.5c2.1,0,4-0.5,5.8-1.6c1.8-1.1,3.1-2.5,3.8-4.3c0.7-1.8,1.1-4.5,1.1-7.9v-21.7h6.9v40.5H266.5z"/>
	<path fill="#353535" d="M298.3,277.1l1,6.1c-1.9,0.4-3.7,0.6-5.2,0.6c-2.5,0-4.4-0.4-5.8-1.2c-1.4-0.8-2.3-1.8-2.9-3.1
		c-0.6-1.3-0.8-4-0.8-8.1v-23.3h-5v-5.3h5v-10l6.8-4.1v14.1h6.9v5.3h-6.9v23.7c0,2,0.1,3.2,0.4,3.8c0.2,0.6,0.6,1,1.2,1.3
		c0.5,0.3,1.3,0.5,2.3,0.5C296.1,277.3,297.1,277.2,298.3,277.1z"/>
	<path fill="#353535" d="M364.3,227.3h7.4v32.3c0,5.6-0.6,10.1-1.9,13.4c-1.3,3.3-3.6,6-6.9,8.1c-3.3,2.1-7.7,3.1-13.1,3.1
		c-5.2,0-9.5-0.9-12.8-2.7c-3.3-1.8-5.7-4.4-7.1-7.8c-1.4-3.4-2.1-8.1-2.1-14v-32.3h7.4v32.2c0,4.9,0.5,8.4,1.4,10.7
		c0.9,2.3,2.5,4.1,4.7,5.3c2.2,1.2,4.9,1.9,8.1,1.9c5.4,0,9.3-1.2,11.6-3.7c2.3-2.5,3.5-7.2,3.5-14.2V227.3z"/>
	<path fill="#353535" d="M380.4,271.1l6.8-1.1c0.4,2.7,1.4,4.8,3.2,6.3c1.7,1.4,4.2,2.2,7.3,2.2c3.2,0,5.5-0.6,7-1.9
		c1.5-1.3,2.3-2.8,2.3-4.5c0-1.5-0.7-2.8-2-3.7c-0.9-0.6-3.3-1.4-7-2.3c-5-1.3-8.5-2.4-10.5-3.3c-1.9-0.9-3.4-2.2-4.4-3.8
		c-1-1.6-1.5-3.4-1.5-5.4c0-1.8,0.4-3.5,1.2-5c0.8-1.5,1.9-2.8,3.4-3.8c1.1-0.8,2.5-1.5,4.4-2c1.8-0.5,3.8-0.8,5.9-0.8
		c3.2,0,6,0.5,8.4,1.4c2.4,0.9,4.2,2.2,5.3,3.7c1.1,1.6,1.9,3.7,2.4,6.3l-6.7,0.9c-0.3-2.1-1.2-3.7-2.6-4.9
		c-1.5-1.2-3.5-1.8-6.2-1.8c-3.2,0-5.4,0.5-6.7,1.6c-1.3,1-2,2.3-2,3.7c0,0.9,0.3,1.7,0.8,2.4c0.6,0.7,1.4,1.3,2.6,1.8
		c0.7,0.3,2.7,0.8,6.1,1.8c4.9,1.3,8.2,2.4,10.2,3.2c1.9,0.8,3.4,2,4.5,3.6c1.1,1.6,1.6,3.5,1.6,5.9c0,2.3-0.7,4.4-2,6.5
		c-1.3,2-3.3,3.6-5.8,4.7c-2.5,1.1-5.4,1.7-8.5,1.7c-5.3,0-9.3-1.1-12-3.3C382.9,278.7,381.1,275.4,380.4,271.1z"/>
</g>
</svg>
