<?xml version="1.0" encoding="utf-8"?>
<!-- Generator: Adobe Illustrator 18.0.0, SVG Export Plug-In . SVG Version: 6.00 Build 0)  -->
<!DOCTYPE svg PUBLIC "-//W3C//DTD SVG 1.1//EN" "http://www.w3.org/Graphics/SVG/1.1/DTD/svg11.dtd">
<svg version="1.1" id="Layer_1" xmlns="http://www.w3.org/2000/svg" xmlns:xlink="http://www.w3.org/1999/xlink" x="0px" y="0px"
	 viewBox="0 0 512 128" enable-background="new 0 0 512 128" xml:space="preserve">
<g>
	<path fill="#FFFFFF" d="M34.8,34.6v16.2c0,3.1-0.6,5.4-1.7,6.9c-2,2.7-6.2,4.1-12.6,4.1c-4.6,0-8.1-0.7-10.6-2.2
		c-1.4-0.9-2.4-2-3-3.5c-0.5-1.5-0.8-3.2-0.8-5.2V34.6c0-0.4-0.1-0.8-0.3-1c-0.2-0.2-0.6-0.4-1.1-0.5v-0.7h9v0.7
		c-0.5,0.1-0.9,0.3-1.1,0.5c-0.2,0.2-0.3,0.6-0.3,1V49c0,1.7,0.1,2.9,0.3,3.7c0.2,0.8,0.5,1.5,1,2c1.4,1.4,3.7,2.2,6.9,2.2
		c3.3,0,5.6-0.7,7-2.2c0.5-0.5,0.8-1.2,1-2c0.2-0.8,0.3-2,0.3-3.7V34.6c0-0.4-0.1-0.8-0.3-1c-0.2-0.2-0.5-0.4-1.1-0.5v-0.7h8.5v0.7
		c-0.5,0.1-0.9,0.3-1.1,0.5C34.9,33.9,34.8,34.2,34.8,34.6z"/>
	<path fill="#FFFFFF" d="M62.7,40.9L56,57.6c-0.4,0.8-0.6,1.4-0.6,1.6c0,0.6,0.5,1.1,1.6,1.4v0.7h-9.3v-0.7c0.9-0.2,1.4-0.7,1.4-1.4
		c0-0.2-0.2-0.8-0.6-1.9L40.3,36c-0.4-1.1-0.8-1.8-1.1-2.1c-0.3-0.4-0.8-0.6-1.5-0.8v-0.7h10v0.7c-0.9,0.2-1.3,0.6-1.3,1.2
		c0,0.3,0.1,0.8,0.3,1.4L52.5,51l6.2-15.4c0.3-0.7,0.4-1.1,0.4-1.3c0-0.6-0.5-1.1-1.4-1.2v-0.7h10.5v0.7c-1,0.3-1.4,0.7-1.4,1.4
		c0,0.2,0.1,0.6,0.4,1.3L73,51l5.7-15c0.3-0.7,0.4-1.3,0.4-1.7c0-0.6-0.5-1-1.5-1.2v-0.7h9.9v0.7c-0.7,0.2-1.2,0.5-1.5,0.8
		s-0.6,1-1.1,2.1l-8.3,21.3c-0.4,1-0.6,1.7-0.6,2c0,0.7,0.5,1.1,1.5,1.3v0.7h-9.4v-0.7c1-0.2,1.5-0.6,1.5-1.4c0-0.3-0.2-0.9-0.7-1.9
		L62.7,40.9z"/>
	<path fill="#FFFFFF" d="M108.1,48.6v7.9h18.6c0.4,0,0.7-0.1,1-0.3c0.2-0.2,0.4-0.5,0.6-1.1h0.7v7.5h-0.7c-0.1-0.5-0.3-0.9-0.6-1.1
		c-0.2-0.2-0.5-0.3-1-0.3h-26.2v-0.7c0.5-0.1,0.9-0.3,1.1-0.5c0.2-0.2,0.3-0.6,0.3-1V34.6c0-0.4-0.1-0.8-0.3-1
		c-0.2-0.2-0.6-0.4-1.1-0.5v-0.7h25.7c0.4,0,0.7-0.1,1-0.3s0.4-0.6,0.6-1.1h0.7v7.5h-0.7c-0.1-0.5-0.3-0.9-0.6-1.1
		c-0.2-0.2-0.5-0.3-1-0.3h-18.1V44h11.7c0.4,0,0.7-0.1,1-0.3c0.2-0.2,0.4-0.5,0.5-1.1h0.7V50h-0.7c-0.1-0.5-0.3-0.8-0.5-1
		c-0.2-0.2-0.6-0.3-1-0.3H108.1z"/>
	<path fill="#FFFFFF" d="M139.4,45.7v13.4c0,0.4,0.1,0.8,0.3,1c0.2,0.2,0.6,0.4,1,0.6v0.6h-7.9v-0.6c0.5-0.1,0.8-0.3,1-0.6
		c0.2-0.2,0.3-0.6,0.3-1V39.8c0-0.4-0.1-0.8-0.3-1c-0.2-0.2-0.6-0.4-1.1-0.6v-0.6h9.1v0.6c-0.6,0.2-0.9,0.4-0.9,0.8
		c0,0.3,0.2,0.7,0.7,1.2l12.7,12.6V39.8c0-0.4-0.1-0.8-0.3-1c-0.2-0.2-0.6-0.4-1.1-0.6v-0.6h7.9v0.6c-0.5,0.1-0.9,0.3-1.1,0.6
		c-0.2,0.2-0.3,0.6-0.3,1v19.4c0,0.4,0.1,0.8,0.3,1c0.2,0.2,0.6,0.4,1.1,0.6v0.6h-8.5v-0.6c0.6-0.1,0.9-0.4,0.9-0.8
		c0-0.2-0.1-0.4-0.3-0.6s-0.6-0.6-1.2-1.2L139.4,45.7z"/>
	<path fill="#FFFFFF" d="M172.1,51.2V57h15c0.4,0,0.8-0.1,1-0.3c0.2-0.2,0.4-0.5,0.6-1.1h0.6v7h-0.6c-0.1-0.5-0.3-0.8-0.5-1
		c-0.2-0.2-0.6-0.3-1-0.3h-22.1v-0.6c0.5-0.1,0.8-0.3,1-0.6c0.2-0.2,0.3-0.6,0.3-1V39.8c0-0.4-0.1-0.8-0.3-1
		c-0.2-0.2-0.6-0.4-1.1-0.6v-0.6h21.4c0.5,0,0.8-0.1,1-0.3c0.2-0.2,0.4-0.5,0.6-1.1h0.6v7h-0.6c-0.1-0.5-0.3-0.9-0.6-1.1
		c-0.2-0.2-0.6-0.3-1-0.3h-14.4v5.2h8.9c0.4,0,0.8-0.1,1-0.3c0.2-0.2,0.4-0.6,0.6-1.1h0.6v6.8h-0.6c-0.1-0.5-0.3-0.9-0.6-1.1
		c-0.2-0.2-0.6-0.3-1-0.3H172.1z"/>
	<path fill="#FFFFFF" d="M199.9,51.6v7.6c0,0.4,0.1,0.8,0.3,1c0.2,0.2,0.6,0.4,1.1,0.6v0.6h-8.4v-0.6c0.5-0.1,0.8-0.3,1-0.6
		c0.2-0.2,0.3-0.6,0.3-1V39.8c0-0.4-0.1-0.8-0.3-1c-0.2-0.2-0.6-0.4-1.1-0.6v-0.6h15.5c2,0,3.6,0.1,4.6,0.3c1.1,0.2,2,0.6,2.8,1.1
		c1.7,1.1,2.6,2.9,2.6,5.5c0,1.9-0.5,3.4-1.6,4.5s-2.7,1.9-5.1,2.3l4.5,6.2c0.8,1.2,1.5,1.9,2,2.4c0.5,0.4,1,0.7,1.7,0.8v0.6h-10
		v-0.6c0.7-0.2,1.1-0.5,1.1-0.9c0-0.3-0.2-0.8-0.7-1.4l-4.7-6.8H199.9z M199.9,47.3h8.5c1.3,0,2.3-0.1,2.9-0.4
		c0.9-0.4,1.3-1.1,1.3-2.3c0-1-0.3-1.7-0.9-2.1c-0.6-0.4-1.7-0.6-3.3-0.6h-8.5V47.3z"/>
	<path fill="#FFFFFF" d="M243.5,52.2h-5.4c-0.5,0-0.8,0.1-1,0.3c-0.2,0.2-0.4,0.5-0.6,1.1h-0.6v-6.3h0.6c0.1,0.5,0.3,0.9,0.6,1.1
		c0.2,0.2,0.6,0.3,1,0.3h11.3v0.6c-0.5,0.1-0.8,0.3-1,0.6c-0.2,0.3-0.3,0.6-0.3,1.1v5c0,0.4,0.1,0.8,0.3,1c0.2,0.2,0.6,0.4,1,0.6V58
		c-4.6,2.5-9.1,3.8-13.7,3.8c-3.9,0-7.1-0.9-9.5-2.8c-1.3-1-2.4-2.3-3.2-3.8c-0.9-1.8-1.4-3.7-1.4-5.7c0-2.8,0.9-5.3,2.6-7.4
		c2.7-3.4,6.6-5,11.9-5c2.3,0,4.9,0.5,7.9,1.5c1.2,0.4,1.9,0.6,2.1,0.6c0.2,0,0.5-0.1,0.8-0.3l0.5,0.3l-2.8,6l-0.5-0.3
		c0-0.1,0-0.1,0-0.1c0-0.5-0.5-1.1-1.6-1.6c-1.9-1-4-1.5-6.2-1.5c-2.6,0-4.6,0.7-6.3,2.1c-1.7,1.5-2.6,3.4-2.6,5.9
		c0,2.3,0.8,4.2,2.3,5.6c1.6,1.4,3.9,2.1,6.8,2.1c2.8,0,5.1-0.5,7-1.5V52.2z"/>
	<path fill="#FFFFFF" d="M267,50.9v8.2c0,0.4,0.1,0.8,0.3,1c0.2,0.2,0.6,0.4,1.1,0.6v0.6H260v-0.6c0.5-0.1,0.9-0.3,1.1-0.6
		s0.3-0.6,0.3-1v-8.2l-7-9.7c-0.8-1.1-1.4-1.8-1.9-2.2c-0.5-0.4-1-0.7-1.7-0.8v-0.6h10.7v0.6c-0.9,0.2-1.4,0.7-1.4,1.3
		c0,0.3,0.3,0.9,1,1.9l3.4,4.8l3.4-4.8c0.7-0.9,1-1.6,1-1.9c0-0.6-0.5-1-1.4-1.3l0-0.6h10.2v0.6c-0.6,0.1-1.2,0.4-1.7,0.8
		c-0.5,0.4-1.1,1.1-1.9,2.2L267,50.9z"/>
	<path fill="#FFFFFF" d="M297.7,41.5v17.6c0,0.4,0.1,0.8,0.3,1c0.2,0.2,0.5,0.4,1.1,0.5v0.7h-8.5v-0.7c0.5-0.1,0.9-0.3,1.1-0.5
		s0.3-0.6,0.3-1V34.6c0-0.4-0.1-0.7-0.3-1c-0.2-0.2-0.5-0.4-1.1-0.5v-0.7h9.8v0.7c-0.6,0.2-0.9,0.5-0.9,1c0,0.3,0.2,0.7,0.6,1.1
		L316,51.8V34.6c0-0.4-0.1-0.7-0.3-1c-0.2-0.2-0.5-0.4-1.1-0.5v-0.7h8.5v0.7c-0.5,0.1-0.9,0.3-1.1,0.5c-0.2,0.2-0.3,0.6-0.3,1v24.5
		c0,0.4,0.1,0.8,0.3,1s0.5,0.4,1.1,0.5v0.7h-9.1v-0.7c0.6-0.1,0.9-0.4,0.9-0.9c0-0.3-0.3-0.8-1-1.5L297.7,41.5z"/>
	<path fill="#FFFFFF" d="M334.8,51.2V57h15c0.4,0,0.8-0.1,1-0.3s0.4-0.5,0.6-1.1h0.6v7h-0.6c-0.1-0.5-0.3-0.8-0.5-1
		c-0.2-0.2-0.6-0.3-1-0.3h-22.1v-0.6c0.5-0.1,0.8-0.3,1-0.6c0.2-0.2,0.3-0.6,0.3-1V39.8c0-0.4-0.1-0.8-0.3-1s-0.5-0.4-1.1-0.6v-0.6
		h21.4c0.5,0,0.8-0.1,1-0.3c0.2-0.2,0.4-0.5,0.6-1.1h0.6v7h-0.6c-0.1-0.5-0.3-0.9-0.6-1.1s-0.6-0.3-1-0.3h-14.4v5.2h8.9
		c0.4,0,0.8-0.1,1-0.3c0.2-0.2,0.4-0.6,0.6-1.1h0.6v6.8h-0.6c-0.1-0.5-0.3-0.9-0.6-1.1c-0.2-0.2-0.6-0.3-1-0.3H334.8z"/>
	<path fill="#FFFFFF" d="M368.9,41.9v17.2c0,0.4,0.1,0.8,0.3,1s0.5,0.4,1.1,0.6v0.6h-8.4v-0.6c0.5-0.1,0.8-0.3,1-0.6
		c0.2-0.2,0.3-0.6,0.3-1V41.9h-7c-0.5,0-0.8,0.1-1,0.3c-0.2,0.2-0.4,0.6-0.6,1.1h-0.6v-7h0.6c0.1,0.5,0.3,0.8,0.5,1
		c0.2,0.2,0.6,0.3,1,0.3h19.7c0.5,0,0.8-0.1,1-0.3c0.2-0.2,0.4-0.5,0.6-1.1h0.6v7h-0.6c-0.1-0.5-0.3-0.9-0.6-1.1
		c-0.2-0.2-0.6-0.3-1-0.3H368.9z"/>
	<path fill="#FFFFFF" d="M399.2,44.8L394,57.7c-0.3,0.6-0.4,1.2-0.4,1.6c0,0.8,0.5,1.3,1.4,1.4v0.6h-8.8v-0.6
		c0.8-0.2,1.3-0.7,1.3-1.4c0-0.4-0.1-0.9-0.4-1.6l-6.3-16.2c-0.5-1.2-0.9-2.1-1.2-2.5s-0.8-0.7-1.5-0.9v-0.6h9v0.6
		c-0.9,0.3-1.3,0.7-1.3,1.3c0,0.3,0.1,0.8,0.4,1.5l4.5,11.2l4.4-11.1c0.3-0.7,0.4-1.2,0.4-1.5c0-0.7-0.5-1.2-1.4-1.4v-0.6h10.5v0.6
		c-0.9,0.3-1.4,0.8-1.4,1.5c0,0.3,0.1,0.8,0.4,1.4l4.3,11.2l4.3-11.3c0.2-0.5,0.3-0.9,0.3-1.3c0-0.4-0.1-0.7-0.3-0.9
		c-0.2-0.2-0.6-0.4-1.1-0.6v-0.6h9.2v0.6c-0.7,0.3-1.2,0.6-1.5,1c-0.3,0.4-0.7,1.2-1.2,2.4l-6.4,16.2c-0.2,0.6-0.3,1.1-0.3,1.5
		c0,0.8,0.5,1.3,1.4,1.5v0.6h-9.2v-0.6c0.9-0.3,1.4-0.8,1.4-1.5c0-0.2-0.2-0.7-0.5-1.5L399.2,44.8z"/>
	<path fill="#FFFFFF" d="M434.2,37.1c3.8,0,6.9,1,9.4,2.9c3,2.3,4.5,5.5,4.5,9.7c0,3.9-1.5,7-4.5,9.3c-2.5,1.9-5.6,2.9-9.4,2.9
		s-6.9-1-9.4-2.9c-3-2.3-4.5-5.5-4.5-9.5c0-4,1.5-7.2,4.5-9.5C427.4,38.1,430.5,37.1,434.2,37.1z M434.2,41.6c-2.4,0-4.4,0.8-6,2.3
		c-1.4,1.5-2.1,3.3-2.1,5.5c0,2.2,0.7,4,2.1,5.5c1.5,1.6,3.5,2.4,6,2.4c2.4,0,4.4-0.8,6-2.4c1.4-1.5,2.1-3.3,2.1-5.4
		c0-2.3-0.7-4.2-2.1-5.6C438.7,42.4,436.7,41.6,434.2,41.6z"/>
	<path fill="#FFFFFF" d="M458.8,51.6v7.6c0,0.4,0.1,0.8,0.3,1c0.2,0.2,0.5,0.4,1.1,0.6v0.6h-8.4v-0.6c0.5-0.1,0.8-0.3,1-0.6
		c0.2-0.2,0.3-0.6,0.3-1V39.8c0-0.4-0.1-0.8-0.3-1s-0.5-0.4-1.1-0.6v-0.6h15.5c2,0,3.6,0.1,4.6,0.3c1.1,0.2,2,0.6,2.8,1.1
		c1.7,1.1,2.6,2.9,2.6,5.5c0,1.9-0.5,3.4-1.6,4.5s-2.7,1.9-5.1,2.3l4.5,6.2c0.8,1.2,1.5,1.9,2,2.4c0.5,0.4,1,0.7,1.7,0.8v0.6h-10
		v-0.6c0.7-0.2,1.1-0.5,1.1-0.9c0-0.3-0.2-0.8-0.7-1.4l-4.7-6.8H458.8z M458.8,47.3h8.5c1.3,0,2.3-0.1,2.9-0.4
		c0.9-0.4,1.3-1.1,1.3-2.3c0-1-0.3-1.7-0.9-2.1c-0.6-0.4-1.7-0.6-3.3-0.6h-8.5V47.3z"/>
	<path fill="#FFFFFF" d="M492,50.5l-3.4,2.7v5.9c0,0.4,0.1,0.8,0.3,1c0.2,0.2,0.5,0.4,1.1,0.6v0.6h-8.4v-0.6c0.5-0.1,0.8-0.3,1-0.6
		c0.2-0.2,0.3-0.6,0.3-1V39.8c0-0.4-0.1-0.8-0.3-1s-0.5-0.4-1.1-0.6v-0.6h8.4v0.6c-0.5,0.1-0.9,0.3-1.1,0.6c-0.2,0.2-0.3,0.6-0.3,1
		v7.8l8.9-7.1c0.7-0.5,1-1,1-1.4c0-0.4-0.4-0.7-1.2-0.8v-0.6H508v0.6c-0.5,0.1-1,0.2-1.3,0.5c-0.4,0.2-1.3,1-2.7,2.2l-8,6.4
		l8.8,10.1c1.1,1.3,1.9,2.2,2.4,2.5c0.5,0.4,1,0.7,1.7,0.8v0.6h-10.4v-0.6c0.8-0.2,1.2-0.5,1.2-0.8c0-0.1,0-0.3-0.1-0.4
		c-0.1-0.1-0.4-0.5-1-1.2L492,50.5z"/>
	<path fill="#FFFFFF" d="M26.5,88.9h-4.9l-0.7,1.5c-0.1,0.2-0.2,0.4-0.2,0.5c0,0.2,0.2,0.4,0.5,0.5v0.3h-3.6v-0.3
		c0.2,0,0.4-0.1,0.5-0.2c0.1-0.1,0.2-0.3,0.4-0.6l4-8.3c0.1-0.3,0.2-0.5,0.2-0.6c0-0.2-0.2-0.4-0.5-0.5v-0.3h3.8v0.3
		c-0.3,0.1-0.5,0.2-0.5,0.5c0,0.2,0,0.3,0.2,0.5l4.1,8.3c0.2,0.4,0.3,0.6,0.5,0.7c0.1,0.1,0.3,0.2,0.5,0.3v0.3h-4v-0.3
		c0.4-0.1,0.5-0.2,0.5-0.5c0-0.1-0.1-0.3-0.2-0.5L26.5,88.9z M25.8,87.4l-1.8-3.9l-1.8,3.9H25.8z"/>
	<path fill="#FFFFFF" d="M34,85.8v5c0,0.2,0,0.3,0.1,0.4c0.1,0.1,0.2,0.2,0.4,0.2v0.2h-3v-0.2c0.2,0,0.3-0.1,0.4-0.2
		c0.1-0.1,0.1-0.2,0.1-0.4v-7.3c0-0.2,0-0.3-0.1-0.4c-0.1-0.1-0.2-0.2-0.4-0.2v-0.2H35V83c-0.2,0.1-0.3,0.2-0.3,0.3
		c0,0.1,0.1,0.3,0.3,0.4l4.8,4.7v-4.9c0-0.2,0-0.3-0.1-0.4c-0.1-0.1-0.2-0.2-0.4-0.2v-0.2h3V83c-0.2,0.1-0.3,0.1-0.4,0.2
		c-0.1,0.1-0.1,0.2-0.1,0.4v7.3c0,0.2,0,0.3,0.1,0.4c0.1,0.1,0.2,0.2,0.4,0.2v0.2h-3.2v-0.2c0.2,0,0.3-0.1,0.3-0.3
		c0-0.1,0-0.1-0.1-0.2c-0.1-0.1-0.2-0.2-0.4-0.5L34,85.8z"/>
	<path fill="#FFFFFF" d="M55.9,88.9h-4.9l-0.7,1.5c-0.1,0.2-0.2,0.4-0.2,0.5c0,0.2,0.2,0.4,0.5,0.5v0.3H47v-0.3
		c0.2,0,0.4-0.1,0.5-0.2c0.1-0.1,0.2-0.3,0.4-0.6l4-8.3c0.1-0.3,0.2-0.5,0.2-0.6c0-0.2-0.2-0.4-0.5-0.5v-0.3h3.8v0.3
		c-0.3,0.1-0.5,0.2-0.5,0.5c0,0.2,0,0.3,0.2,0.5l4.1,8.3c0.2,0.4,0.3,0.6,0.5,0.7c0.1,0.1,0.3,0.2,0.5,0.3v0.3h-4v-0.3
		c0.4-0.1,0.5-0.2,0.5-0.5c0-0.1-0.1-0.3-0.2-0.5L55.9,88.9z M55.2,87.4l-1.8-3.9l-1.8,3.9H55.2z"/>
	<path fill="#FFFFFF" d="M69.5,83.5l-1.1,2.1l-0.2-0.1c0-0.2-0.1-0.3-0.2-0.4c-0.3-0.3-0.7-0.5-1.3-0.7c-0.6-0.2-1.2-0.3-1.8-0.3
		c-0.5,0-1,0.1-1.4,0.2c-0.6,0.2-0.9,0.5-0.9,0.9c0,0.3,0.1,0.4,0.4,0.6c0.3,0.1,0.8,0.2,1.6,0.3l1.3,0.1c1.1,0.1,1.9,0.3,2.5,0.6
		c0.3,0.2,0.6,0.4,0.8,0.8c0.3,0.4,0.4,0.8,0.4,1.3c0,0.9-0.4,1.6-1.2,2.1c-0.8,0.5-1.8,0.8-3.2,0.8c-1.3,0-2.6-0.3-3.9-0.8
		c-0.1,0-0.2-0.1-0.2-0.1c-0.1,0-0.2,0.1-0.3,0.2L60.7,91l0.9-2.2l0.2,0.1c0,0,0,0.1,0,0.1c0,0.1,0.1,0.3,0.2,0.3
		c0.3,0.2,0.7,0.4,1.4,0.6s1.3,0.3,1.9,0.3c0.6,0,1.1-0.1,1.5-0.2c0.5-0.2,0.8-0.5,0.8-0.9c0-0.3-0.2-0.5-0.6-0.7
		c-0.3-0.1-0.7-0.2-1.4-0.2l-1.2-0.1c-0.7-0.1-1.2-0.1-1.5-0.2c-0.4-0.1-0.7-0.2-0.9-0.4c-0.3-0.2-0.6-0.5-0.8-0.9
		c-0.2-0.4-0.3-0.8-0.3-1.2c0-1,0.4-1.7,1.3-2.2c0.8-0.5,1.7-0.7,2.8-0.7c0.6,0,1.2,0.1,1.7,0.2s1.2,0.4,1.9,0.7
		c0.2,0.1,0.4,0.2,0.5,0.2c0.1,0,0.2-0.1,0.3-0.2L69.5,83.5z"/>
	<path fill="#FFFFFF" d="M79.5,83.5l-1.1,2.1l-0.2-0.1c0-0.2-0.1-0.3-0.2-0.4c-0.3-0.3-0.7-0.5-1.3-0.7c-0.6-0.2-1.2-0.3-1.8-0.3
		c-0.5,0-1,0.1-1.4,0.2c-0.6,0.2-0.9,0.5-0.9,0.9c0,0.3,0.1,0.4,0.4,0.6c0.3,0.1,0.8,0.2,1.6,0.3l1.3,0.1c1.1,0.1,1.9,0.3,2.5,0.6
		c0.3,0.2,0.6,0.4,0.8,0.8c0.3,0.4,0.4,0.8,0.4,1.3c0,0.9-0.4,1.6-1.2,2.1c-0.8,0.5-1.8,0.8-3.2,0.8c-1.3,0-2.6-0.3-3.9-0.8
		c-0.1,0-0.2-0.1-0.2-0.1c-0.1,0-0.2,0.1-0.3,0.2L70.7,91l0.9-2.2l0.2,0.1c0,0,0,0.1,0,0.1c0,0.1,0.1,0.3,0.2,0.3
		c0.3,0.2,0.7,0.4,1.4,0.6s1.3,0.3,1.9,0.3c0.6,0,1.1-0.1,1.5-0.2c0.5-0.2,0.8-0.5,0.8-0.9c0-0.3-0.2-0.5-0.6-0.7
		c-0.3-0.1-0.7-0.2-1.4-0.2l-1.2-0.1c-0.7-0.1-1.2-0.1-1.5-0.2c-0.4-0.1-0.7-0.2-0.9-0.4c-0.3-0.2-0.6-0.5-0.8-0.9
		c-0.2-0.4-0.3-0.8-0.3-1.2c0-1,0.4-1.7,1.3-2.2c0.8-0.5,1.7-0.7,2.8-0.7c0.6,0,1.2,0.1,1.7,0.2s1.2,0.4,1.9,0.7
		c0.2,0.1,0.4,0.2,0.5,0.2c0.1,0,0.2-0.1,0.3-0.2L79.5,83.5z"/>
	<path fill="#FFFFFF" d="M86,82.6c1.4,0,2.6,0.4,3.5,1.1c1.1,0.9,1.7,2.1,1.7,3.6c0,1.5-0.6,2.6-1.7,3.5c-0.9,0.7-2.1,1.1-3.5,1.1
		c-1.4,0-2.6-0.4-3.5-1.1c-1.1-0.9-1.7-2.1-1.7-3.6c0-1.5,0.6-2.7,1.7-3.6C83.4,82.9,84.6,82.6,86,82.6z M86,84.2
		c-0.9,0-1.7,0.3-2.2,0.9c-0.5,0.5-0.8,1.2-0.8,2.1c0,0.8,0.3,1.5,0.8,2.1c0.6,0.6,1.3,0.9,2.2,0.9c0.9,0,1.7-0.3,2.2-0.9
		c0.5-0.5,0.8-1.2,0.8-2c0-0.9-0.3-1.6-0.8-2.1C87.6,84.5,86.9,84.2,86,84.2z"/>
	<path fill="#FFFFFF" d="M101.2,88.4l1.3,2l-0.2,0.1c-0.1-0.1-0.2-0.1-0.3-0.1c-0.1,0-0.3,0.1-0.6,0.3c-0.7,0.4-1.4,0.7-1.9,0.9
		c-0.6,0.2-1.2,0.2-1.9,0.2c-1.4,0-2.6-0.3-3.5-1c-0.5-0.4-0.9-0.9-1.2-1.5c-0.3-0.6-0.5-1.3-0.5-2.1c0-1,0.3-2,0.9-2.8
		c0.9-1.2,2.4-1.9,4.4-1.9c0.7,0,1.4,0.1,1.9,0.2c0.6,0.2,1.2,0.5,1.9,0.9c0.3,0.2,0.5,0.3,0.6,0.3c0.1,0,0.2,0,0.3-0.1l0.2,0.1
		l-1.3,1.9l-0.2-0.1c0-0.1,0-0.1,0-0.1c0,0,0-0.1,0-0.1c0-0.3-0.4-0.5-1.1-0.9c-0.7-0.3-1.4-0.5-2-0.5c-1,0-1.8,0.3-2.4,0.8
		c-0.7,0.6-1.1,1.3-1.1,2.2c0,0.9,0.4,1.6,1.1,2.2c0.6,0.5,1.4,0.8,2.4,0.8c0.8,0,1.5-0.2,2.2-0.6c0.6-0.3,0.9-0.6,0.9-0.8
		c0,0,0-0.1,0-0.2L101.2,88.4z"/>
	<path fill="#FFFFFF" d="M106.5,83.6v7.3c0,0.2,0,0.3,0.1,0.4c0.1,0.1,0.2,0.2,0.4,0.2v0.2h-3.1v-0.2c0.2,0,0.3-0.1,0.4-0.2
		c0.1-0.1,0.1-0.2,0.1-0.4v-7.3c0-0.2,0-0.3-0.1-0.4c-0.1-0.1-0.2-0.2-0.4-0.2v-0.2h3.1V83c-0.2,0.1-0.3,0.1-0.4,0.2
		C106.5,83.3,106.5,83.4,106.5,83.6z"/>
	<path fill="#FFFFFF" d="M115.3,89.4h-4.1l-0.5,1c-0.1,0.2-0.2,0.4-0.2,0.5c0,0.3,0.2,0.4,0.5,0.5v0.2h-3.3v-0.2
		c0.2,0,0.4-0.1,0.4-0.2c0.1-0.1,0.2-0.3,0.3-0.5l3.2-6.6c0.1-0.2,0.2-0.5,0.2-0.7c0-0.2-0.1-0.4-0.4-0.5v-0.2h3.5V83
		c-0.3,0.1-0.4,0.3-0.4,0.5c0,0.2,0.1,0.4,0.2,0.6l3.4,6.4c0.2,0.3,0.3,0.6,0.4,0.7c0.1,0.1,0.3,0.2,0.5,0.2v0.2h-3.6v-0.2
		c0.3-0.1,0.5-0.2,0.5-0.5c0-0.2-0.1-0.4-0.2-0.6L115.3,89.4z M114.7,88.2l-1.5-2.9l-1.4,2.9H114.7z"/>
	<path fill="#FFFFFF" d="M124.7,84.4v6.5c0,0.2,0,0.3,0.1,0.4c0.1,0.1,0.2,0.2,0.4,0.2v0.2h-3.1v-0.2c0.2,0,0.3-0.1,0.4-0.2
		c0.1-0.1,0.1-0.2,0.1-0.4v-6.5H120c-0.2,0-0.3,0-0.4,0.1c-0.1,0.1-0.2,0.2-0.2,0.4h-0.2v-2.6h0.2c0,0.2,0.1,0.3,0.2,0.4
		c0.1,0.1,0.2,0.1,0.4,0.1h7.4c0.2,0,0.3,0,0.4-0.1s0.2-0.2,0.2-0.4h0.2v2.6H128c-0.1-0.2-0.1-0.3-0.2-0.4c-0.1-0.1-0.2-0.1-0.4-0.1
		H124.7z"/>
	<path fill="#FFFFFF" d="M131.7,83.6v7.3c0,0.2,0,0.3,0.1,0.4c0.1,0.1,0.2,0.2,0.4,0.2v0.2h-3.1v-0.2c0.2,0,0.3-0.1,0.4-0.2
		c0.1-0.1,0.1-0.2,0.1-0.4v-7.3c0-0.2,0-0.3-0.1-0.4c-0.1-0.1-0.2-0.2-0.4-0.2v-0.2h3.1V83c-0.2,0.1-0.3,0.1-0.4,0.2
		C131.8,83.3,131.7,83.4,131.7,83.6z"/>
	<path fill="#FFFFFF" d="M138.8,82.6c1.4,0,2.6,0.4,3.5,1.1c1.1,0.9,1.7,2.1,1.7,3.6c0,1.5-0.6,2.6-1.7,3.5
		c-0.9,0.7-2.1,1.1-3.5,1.1c-1.4,0-2.6-0.4-3.5-1.1c-1.1-0.9-1.7-2.1-1.7-3.6c0-1.5,0.6-2.7,1.7-3.6
		C136.2,82.9,137.4,82.6,138.8,82.6z M138.8,84.2c-0.9,0-1.7,0.3-2.2,0.9c-0.5,0.5-0.8,1.2-0.8,2.1c0,0.8,0.3,1.5,0.8,2.1
		c0.6,0.6,1.3,0.9,2.2,0.9c0.9,0,1.7-0.3,2.2-0.9c0.5-0.5,0.8-1.2,0.8-2c0-0.9-0.3-1.6-0.8-2.1C140.5,84.5,139.7,84.2,138.8,84.2z"
		/>
	<path fill="#FFFFFF" d="M147.8,85.8v5c0,0.2,0,0.3,0.1,0.4c0.1,0.1,0.2,0.2,0.4,0.2v0.2h-3v-0.2c0.2,0,0.3-0.1,0.4-0.2
		c0.1-0.1,0.1-0.2,0.1-0.4v-7.3c0-0.2,0-0.3-0.1-0.4c-0.1-0.1-0.2-0.2-0.4-0.2v-0.2h3.4V83c-0.2,0.1-0.3,0.2-0.3,0.3
		c0,0.1,0.1,0.3,0.3,0.4l4.8,4.7v-4.9c0-0.2,0-0.3-0.1-0.4c-0.1-0.1-0.2-0.2-0.4-0.2v-0.2h3V83c-0.2,0.1-0.3,0.1-0.4,0.2
		c-0.1,0.1-0.1,0.2-0.1,0.4v7.3c0,0.2,0,0.3,0.1,0.4c0.1,0.1,0.2,0.2,0.4,0.2v0.2h-3.2v-0.2c0.2,0,0.3-0.1,0.3-0.3
		c0-0.1,0-0.1-0.1-0.2c-0.1-0.1-0.2-0.2-0.4-0.5L147.8,85.8z"/>
	<path fill="#FFFFFF" d="M166.5,82.6c1.4,0,2.6,0.4,3.5,1.1c1.1,0.9,1.7,2.1,1.7,3.6c0,1.5-0.6,2.6-1.7,3.5
		c-0.9,0.7-2.1,1.1-3.5,1.1c-1.4,0-2.6-0.4-3.5-1.1c-1.1-0.9-1.7-2.1-1.7-3.6c0-1.5,0.6-2.7,1.7-3.6C164,82.9,165.1,82.6,166.5,82.6
		z M166.5,84.2c-0.9,0-1.7,0.3-2.2,0.9c-0.5,0.5-0.8,1.2-0.8,2.1c0,0.8,0.3,1.5,0.8,2.1c0.6,0.6,1.3,0.9,2.2,0.9
		c0.9,0,1.7-0.3,2.2-0.9c0.5-0.5,0.8-1.2,0.8-2c0-0.9-0.3-1.6-0.8-2.1C168.2,84.5,167.4,84.2,166.5,84.2z"/>
	<path fill="#FFFFFF" d="M175.7,87.9v3c0,0.2,0,0.3,0.1,0.4s0.2,0.2,0.4,0.2v0.2h-3.1v-0.2c0.2,0,0.3-0.1,0.4-0.2
		c0.1-0.1,0.1-0.2,0.1-0.4v-7.3c0-0.2,0-0.3-0.1-0.4c-0.1-0.1-0.2-0.2-0.4-0.2v-0.2h8c0.2,0,0.3,0,0.4-0.1c0.1-0.1,0.2-0.2,0.2-0.4
		h0.2v2.6h-0.2c-0.1-0.2-0.1-0.3-0.2-0.4c-0.1-0.1-0.2-0.1-0.4-0.1h-5.3v2h3.3c0.2,0,0.3,0,0.4-0.1c0.1-0.1,0.2-0.2,0.2-0.4h0.2v2.6
		h-0.2c-0.1-0.2-0.1-0.3-0.2-0.4c-0.1-0.1-0.2-0.1-0.4-0.1H175.7z"/>
	<path fill="#FFFFFF" d="M198.3,81.6v6.1c0,1.1-0.2,2-0.6,2.6c-0.8,1-2.3,1.5-4.7,1.5c-1.7,0-3-0.3-4-0.8c-0.5-0.3-0.9-0.8-1.1-1.3
		c-0.2-0.5-0.3-1.2-0.3-2v-6.1c0-0.2,0-0.3-0.1-0.4c-0.1-0.1-0.2-0.2-0.4-0.2v-0.3h3.4v0.3c-0.2,0-0.3,0.1-0.4,0.2
		c-0.1,0.1-0.1,0.2-0.1,0.4V87c0,0.6,0,1.1,0.1,1.4s0.2,0.5,0.4,0.8c0.5,0.5,1.4,0.8,2.6,0.8c1.2,0,2.1-0.3,2.6-0.8
		c0.2-0.2,0.3-0.5,0.4-0.8s0.1-0.8,0.1-1.4v-5.4c0-0.2,0-0.3-0.1-0.4c-0.1-0.1-0.2-0.2-0.4-0.2v-0.3h3.2v0.3
		c-0.2,0.1-0.3,0.1-0.4,0.2C198.3,81.3,198.3,81.5,198.3,81.6z"/>
	<path fill="#FFFFFF" d="M208.7,84l-2.5,6.3c-0.1,0.3-0.2,0.5-0.2,0.6c0,0.2,0.2,0.4,0.6,0.5v0.3h-3.5v-0.3c0.4-0.1,0.5-0.2,0.5-0.5
		c0-0.1-0.1-0.3-0.2-0.7l-3.1-8c-0.2-0.4-0.3-0.7-0.4-0.8c-0.1-0.1-0.3-0.2-0.5-0.3v-0.3h3.8v0.3c-0.3,0.1-0.5,0.2-0.5,0.5
		c0,0.1,0,0.3,0.1,0.5l2.1,5.7l2.3-5.8c0.1-0.2,0.2-0.4,0.2-0.5c0-0.2-0.2-0.4-0.5-0.5v-0.3h3.9v0.3c-0.4,0.1-0.5,0.3-0.5,0.5
		c0,0.1,0,0.2,0.1,0.5l2.2,5.7l2.1-5.6c0.1-0.3,0.2-0.5,0.2-0.6c0-0.2-0.2-0.4-0.6-0.5v-0.3h3.7v0.3c-0.3,0.1-0.4,0.2-0.5,0.3
		s-0.2,0.4-0.4,0.8l-3.1,8c-0.1,0.4-0.2,0.6-0.2,0.8c0,0.3,0.2,0.4,0.6,0.5v0.3h-3.5v-0.3c0.4-0.1,0.6-0.2,0.6-0.5
		c0-0.1-0.1-0.3-0.2-0.7L208.7,84z"/>
	<path fill="#FFFFFF" d="M225.8,86.9v3h7c0.2,0,0.3,0,0.4-0.1c0.1-0.1,0.2-0.2,0.2-0.4h0.3v2.8h-0.3c-0.1-0.2-0.1-0.3-0.2-0.4
		c-0.1-0.1-0.2-0.1-0.4-0.1h-9.8v-0.3c0.2-0.1,0.3-0.1,0.4-0.2c0.1-0.1,0.1-0.2,0.1-0.4v-9.2c0-0.2,0-0.3-0.1-0.4
		c-0.1-0.1-0.2-0.2-0.4-0.2v-0.3h9.6c0.2,0,0.3,0,0.4-0.1c0.1-0.1,0.2-0.2,0.2-0.4h0.3v2.8h-0.3c-0.1-0.2-0.1-0.3-0.2-0.4
		c-0.1-0.1-0.2-0.1-0.4-0.1h-6.8v2.6h4.4c0.2,0,0.3,0,0.4-0.1c0.1-0.1,0.2-0.2,0.2-0.4h0.3v2.7h-0.3c-0.1-0.2-0.1-0.3-0.2-0.4
		c-0.1-0.1-0.2-0.1-0.4-0.1H225.8z"/>
	<path fill="#FFFFFF" d="M237.5,85.8v5c0,0.2,0,0.3,0.1,0.4c0.1,0.1,0.2,0.2,0.4,0.2v0.2h-3v-0.2c0.2,0,0.3-0.1,0.4-0.2
		c0.1-0.1,0.1-0.2,0.1-0.4v-7.3c0-0.2,0-0.3-0.1-0.4c-0.1-0.1-0.2-0.2-0.4-0.2v-0.2h3.4V83c-0.2,0.1-0.3,0.2-0.3,0.3
		c0,0.1,0.1,0.3,0.3,0.4l4.8,4.7v-4.9c0-0.2,0-0.3-0.1-0.4c-0.1-0.1-0.2-0.2-0.4-0.2v-0.2h3V83c-0.2,0.1-0.3,0.1-0.4,0.2
		c-0.1,0.1-0.1,0.2-0.1,0.4v7.3c0,0.2,0,0.3,0.1,0.4c0.1,0.1,0.2,0.2,0.4,0.2v0.2h-3.2v-0.2c0.2,0,0.3-0.1,0.3-0.3
		c0-0.1,0-0.1-0.1-0.2c-0.1-0.1-0.2-0.2-0.4-0.5L237.5,85.8z"/>
	<path fill="#FFFFFF" d="M249.8,87.9V90h5.6c0.2,0,0.3,0,0.4-0.1c0.1-0.1,0.2-0.2,0.2-0.4h0.2v2.6H256c0-0.2-0.1-0.3-0.2-0.4
		c-0.1-0.1-0.2-0.1-0.4-0.1h-8.3v-0.2c0.2,0,0.3-0.1,0.4-0.2c0.1-0.1,0.1-0.2,0.1-0.4v-7.3c0-0.2,0-0.3-0.1-0.4
		c-0.1-0.1-0.2-0.2-0.4-0.2v-0.2h8c0.2,0,0.3,0,0.4-0.1c0.1-0.1,0.2-0.2,0.2-0.4h0.2v2.6h-0.2c-0.1-0.2-0.1-0.3-0.2-0.4
		c-0.1-0.1-0.2-0.1-0.4-0.1h-5.4v2h3.3c0.2,0,0.3,0,0.4-0.1c0.1-0.1,0.2-0.2,0.2-0.4h0.2v2.6h-0.2c-0.1-0.2-0.1-0.3-0.2-0.4
		c-0.1-0.1-0.2-0.1-0.4-0.1H249.8z"/>
	<path fill="#FFFFFF" d="M260.2,88v2.8c0,0.2,0,0.3,0.1,0.4s0.2,0.2,0.4,0.2v0.2h-3.1v-0.2c0.2,0,0.3-0.1,0.4-0.2
		c0.1-0.1,0.1-0.2,0.1-0.4v-7.3c0-0.2,0-0.3-0.1-0.4c-0.1-0.1-0.2-0.2-0.4-0.2v-0.2h5.8c0.8,0,1.3,0,1.7,0.1
		c0.4,0.1,0.8,0.2,1.1,0.4c0.6,0.4,1,1.1,1,2c0,0.7-0.2,1.3-0.6,1.7c-0.4,0.4-1,0.7-1.9,0.9l1.7,2.3c0.3,0.4,0.6,0.7,0.7,0.9
		c0.2,0.2,0.4,0.3,0.6,0.3v0.2H264v-0.2c0.3-0.1,0.4-0.2,0.4-0.4c0-0.1-0.1-0.3-0.3-0.5l-1.8-2.5H260.2z M260.2,86.4h3.2
		c0.5,0,0.8-0.1,1.1-0.2c0.3-0.1,0.5-0.4,0.5-0.8c0-0.4-0.1-0.6-0.3-0.8c-0.2-0.1-0.6-0.2-1.2-0.2h-3.2V86.4z"/>
	<path fill="#FFFFFF" d="M276.5,88.2h-2c-0.2,0-0.3,0-0.4,0.1s-0.2,0.2-0.2,0.4h-0.2v-2.4h0.2c0.1,0.2,0.1,0.3,0.2,0.4
		s0.2,0.1,0.4,0.1h4.2v0.2c-0.2,0.1-0.3,0.1-0.4,0.2c-0.1,0.1-0.1,0.2-0.1,0.4v1.9c0,0.2,0,0.3,0.1,0.4c0.1,0.1,0.2,0.2,0.4,0.2v0.2
		c-1.7,0.9-3.4,1.4-5.1,1.4c-1.5,0-2.7-0.3-3.6-1c-0.5-0.4-0.9-0.9-1.2-1.4c-0.4-0.7-0.5-1.4-0.5-2.1c0-1,0.3-2,1-2.8
		c1-1.3,2.5-1.9,4.5-1.9c0.9,0,1.8,0.2,3,0.6c0.4,0.1,0.7,0.2,0.8,0.2c0.1,0,0.2,0,0.3-0.1l0.2,0.1l-1.1,2.2l-0.2-0.1c0,0,0,0,0,0
		c0-0.2-0.2-0.4-0.6-0.6c-0.7-0.4-1.5-0.6-2.3-0.6c-1,0-1.7,0.3-2.4,0.8c-0.6,0.5-1,1.3-1,2.2c0,0.9,0.3,1.6,0.9,2.1
		c0.6,0.5,1.4,0.8,2.5,0.8c1,0,1.9-0.2,2.6-0.6V88.2z"/>
	<path fill="#FFFFFF" d="M285.4,87.7v3.1c0,0.2,0,0.3,0.1,0.4c0.1,0.1,0.2,0.2,0.4,0.2v0.2h-3.1v-0.2c0.2-0.1,0.3-0.1,0.4-0.2
		c0.1-0.1,0.1-0.2,0.1-0.4v-3.1l-2.6-3.6c-0.3-0.4-0.5-0.7-0.7-0.8c-0.2-0.2-0.4-0.3-0.6-0.3v-0.2h4V83c-0.3,0.1-0.5,0.3-0.5,0.5
		c0,0.1,0.1,0.3,0.4,0.7l1.3,1.8l1.3-1.8c0.2-0.4,0.4-0.6,0.4-0.7c0-0.2-0.2-0.4-0.5-0.5l0-0.2h3.8V83c-0.2,0.1-0.5,0.2-0.6,0.3
		s-0.4,0.4-0.7,0.8L285.4,87.7z"/>
	<path fill="#FFFFFF" d="M297.1,89.8h6.7c0.2,0,0.3,0,0.4-0.1c0.1-0.1,0.2-0.2,0.2-0.4h0.3v2.8h-0.3c-0.1-0.2-0.1-0.3-0.2-0.4
		s-0.2-0.1-0.4-0.1h-9.5v-0.3c0.2-0.1,0.3-0.1,0.4-0.2c0.1-0.1,0.1-0.2,0.1-0.4v-9.2c0-0.2,0-0.3-0.1-0.4c-0.1-0.1-0.2-0.2-0.4-0.2
		v-0.3h3.4v0.3c-0.2,0-0.3,0.1-0.4,0.2c-0.1,0.1-0.1,0.2-0.1,0.4V89.8z"/>
	<path fill="#FFFFFF" d="M308.1,87.9V90h5.6c0.2,0,0.3,0,0.4-0.1c0.1-0.1,0.2-0.2,0.2-0.4h0.2v2.6h-0.2c0-0.2-0.1-0.3-0.2-0.4
		c-0.1-0.1-0.2-0.1-0.4-0.1h-8.3v-0.2c0.2,0,0.3-0.1,0.4-0.2c0.1-0.1,0.1-0.2,0.1-0.4v-7.3c0-0.2,0-0.3-0.1-0.4
		c-0.1-0.1-0.2-0.2-0.4-0.2v-0.2h8c0.2,0,0.3,0,0.4-0.1c0.1-0.1,0.2-0.2,0.2-0.4h0.2v2.6h-0.2c-0.1-0.2-0.1-0.3-0.2-0.4
		c-0.1-0.1-0.2-0.1-0.4-0.1h-5.4v2h3.3c0.2,0,0.3,0,0.4-0.1c0.1-0.1,0.2-0.2,0.2-0.4h0.2v2.6h-0.2c-0.1-0.2-0.1-0.3-0.2-0.4
		c-0.1-0.1-0.2-0.1-0.4-0.1H308.1z"/>
	<path fill="#FFFFFF" d="M322.7,89.4h-4.1l-0.5,1c-0.1,0.2-0.2,0.4-0.2,0.5c0,0.3,0.2,0.4,0.5,0.5v0.2h-3.3v-0.2
		c0.2,0,0.3-0.1,0.4-0.2c0.1-0.1,0.2-0.3,0.3-0.5l3.2-6.6c0.1-0.2,0.2-0.5,0.2-0.7c0-0.2-0.1-0.4-0.4-0.5v-0.2h3.5V83
		c-0.3,0.1-0.4,0.3-0.4,0.5c0,0.2,0.1,0.4,0.2,0.6l3.4,6.4c0.2,0.3,0.3,0.6,0.4,0.7c0.1,0.1,0.3,0.2,0.5,0.2v0.2h-3.6v-0.2
		c0.3-0.1,0.5-0.2,0.5-0.5c0-0.2-0.1-0.4-0.2-0.6L322.7,89.4z M322,88.2l-1.5-2.9l-1.4,2.9H322z"/>
	<path fill="#FFFFFF" d="M327.7,90.8v-7.3c0-0.2,0-0.3-0.1-0.4c-0.1-0.1-0.2-0.2-0.4-0.2v-0.2h5.2c1.1,0,1.9,0.1,2.6,0.4
		c0.9,0.4,1.5,1,1.9,1.9c0.3,0.6,0.4,1.3,0.4,2.1c0,1.5-0.5,2.7-1.4,3.5c-0.4,0.3-0.9,0.6-1.4,0.8c-0.6,0.2-1.2,0.2-2.1,0.2h-5.2
		v-0.2c0.2,0,0.3-0.1,0.4-0.2C327.7,91.1,327.7,91,327.7,90.8z M329.8,90h2.3c1,0,1.8-0.2,2.3-0.7c0.5-0.5,0.7-1.2,0.7-2.1
		c0-0.9-0.2-1.6-0.7-2.1c-0.2-0.2-0.5-0.4-0.9-0.5c-0.4-0.1-0.8-0.2-1.4-0.2h-2.3V90z"/>
	<path fill="#FFFFFF" d="M341.3,87.9V90h5.6c0.2,0,0.3,0,0.4-0.1c0.1-0.1,0.2-0.2,0.2-0.4h0.2v2.6h-0.2c0-0.2-0.1-0.3-0.2-0.4
		c-0.1-0.1-0.2-0.1-0.4-0.1h-8.3v-0.2c0.2,0,0.3-0.1,0.4-0.2c0.1-0.1,0.1-0.2,0.1-0.4v-7.3c0-0.2,0-0.3-0.1-0.4
		c-0.1-0.1-0.2-0.2-0.4-0.2v-0.2h8c0.2,0,0.3,0,0.4-0.1c0.1-0.1,0.2-0.2,0.2-0.4h0.2v2.6h-0.2c-0.1-0.2-0.1-0.3-0.2-0.4
		c-0.1-0.1-0.2-0.1-0.4-0.1h-5.4v2h3.3c0.2,0,0.3,0,0.4-0.1c0.1-0.1,0.2-0.2,0.2-0.4h0.2v2.6h-0.2c-0.1-0.2-0.1-0.3-0.2-0.4
		c-0.1-0.1-0.2-0.1-0.4-0.1H341.3z"/>
	<path fill="#FFFFFF" d="M351.7,88v2.8c0,0.2,0,0.3,0.1,0.4s0.2,0.2,0.4,0.2v0.2h-3.1v-0.2c0.2,0,0.3-0.1,0.4-0.2
		c0.1-0.1,0.1-0.2,0.1-0.4v-7.3c0-0.2,0-0.3-0.1-0.4c-0.1-0.1-0.2-0.2-0.4-0.2v-0.2h5.8c0.8,0,1.3,0,1.7,0.1
		c0.4,0.1,0.8,0.2,1.1,0.4c0.6,0.4,1,1.1,1,2c0,0.7-0.2,1.3-0.6,1.7c-0.4,0.4-1,0.7-1.9,0.9l1.7,2.3c0.3,0.4,0.6,0.7,0.7,0.9
		c0.2,0.2,0.4,0.3,0.6,0.3v0.2h-3.7v-0.2c0.3-0.1,0.4-0.2,0.4-0.4c0-0.1-0.1-0.3-0.3-0.5l-1.8-2.5H351.7z M351.7,86.4h3.2
		c0.5,0,0.8-0.1,1.1-0.2c0.3-0.1,0.5-0.4,0.5-0.8c0-0.4-0.1-0.6-0.3-0.8c-0.2-0.1-0.6-0.2-1.2-0.2h-3.2V86.4z"/>
	<path fill="#FFFFFF" d="M368.6,83.5l-1.1,2.1l-0.2-0.1c0-0.2-0.1-0.3-0.2-0.4c-0.3-0.3-0.7-0.5-1.3-0.7c-0.6-0.2-1.2-0.3-1.8-0.3
		c-0.5,0-1,0.1-1.4,0.2c-0.6,0.2-0.9,0.5-0.9,0.9c0,0.3,0.1,0.4,0.4,0.6c0.3,0.1,0.8,0.2,1.6,0.3l1.3,0.1c1.1,0.1,1.9,0.3,2.5,0.6
		c0.3,0.2,0.6,0.4,0.8,0.8c0.3,0.4,0.4,0.8,0.4,1.3c0,0.9-0.4,1.6-1.2,2.1c-0.8,0.5-1.8,0.8-3.2,0.8c-1.3,0-2.6-0.3-3.9-0.8
		c-0.1,0-0.2-0.1-0.2-0.1c-0.1,0-0.2,0.1-0.3,0.2l-0.2-0.1l0.9-2.2l0.2,0.1c0,0,0,0.1,0,0.1c0,0.1,0.1,0.3,0.2,0.3
		c0.3,0.2,0.7,0.4,1.4,0.6c0.7,0.2,1.3,0.3,1.9,0.3c0.6,0,1.1-0.1,1.5-0.2c0.6-0.2,0.8-0.5,0.8-0.9c0-0.3-0.2-0.5-0.6-0.7
		c-0.3-0.1-0.7-0.2-1.4-0.2l-1.2-0.1c-0.7-0.1-1.2-0.1-1.5-0.2s-0.7-0.2-0.9-0.4c-0.3-0.2-0.6-0.5-0.8-0.9c-0.2-0.4-0.3-0.8-0.3-1.2
		c0-1,0.4-1.7,1.3-2.2c0.8-0.5,1.7-0.7,2.8-0.7c0.6,0,1.2,0.1,1.7,0.2s1.2,0.4,1.9,0.7c0.2,0.1,0.4,0.2,0.5,0.2
		c0.1,0,0.2-0.1,0.3-0.2L368.6,83.5z"/>
	<path fill="#FFFFFF" d="M379.1,82.6c1.4,0,2.6,0.4,3.5,1.1c1.1,0.9,1.7,2.1,1.7,3.6c0,1.5-0.6,2.6-1.7,3.5
		c-0.9,0.7-2.1,1.1-3.5,1.1c-1.4,0-2.6-0.4-3.5-1.1c-1.1-0.9-1.7-2.1-1.7-3.6c0-1.5,0.6-2.7,1.7-3.6
		C376.6,82.9,377.7,82.6,379.1,82.6z M379.1,84.2c-0.9,0-1.7,0.3-2.2,0.9c-0.5,0.5-0.8,1.2-0.8,2.1c0,0.8,0.3,1.5,0.8,2.1
		c0.6,0.6,1.3,0.9,2.2,0.9c0.9,0,1.7-0.3,2.2-0.9c0.5-0.5,0.8-1.2,0.8-2c0-0.9-0.3-1.6-0.8-2.1C380.8,84.5,380.1,84.2,379.1,84.2z"
		/>
	<path fill="#FFFFFF" d="M388.3,87.9v3c0,0.2,0,0.3,0.1,0.4s0.2,0.2,0.4,0.2v0.2h-3.1v-0.2c0.2,0,0.3-0.1,0.4-0.2
		c0.1-0.1,0.1-0.2,0.1-0.4v-7.3c0-0.2,0-0.3-0.1-0.4c-0.1-0.1-0.2-0.2-0.4-0.2v-0.2h8c0.2,0,0.3,0,0.4-0.1c0.1-0.1,0.2-0.2,0.2-0.4
		h0.2v2.6h-0.2c-0.1-0.2-0.1-0.3-0.2-0.4c-0.1-0.1-0.2-0.1-0.4-0.1h-5.3v2h3.3c0.2,0,0.3,0,0.4-0.1c0.1-0.1,0.2-0.2,0.2-0.4h0.2v2.6
		h-0.2c-0.1-0.2-0.1-0.3-0.2-0.4c-0.1-0.1-0.2-0.1-0.4-0.1H388.3z"/>
	<path fill="#FFFFFF" d="M405.6,82.6v8.2c0,0.2,0,0.3,0.1,0.4c0.1,0.1,0.2,0.2,0.4,0.2v0.3h-3.4v-0.3c0.2-0.1,0.3-0.1,0.4-0.2
		c0.1-0.1,0.1-0.2,0.1-0.4v-8.2h-3.4c-0.2,0-0.3,0-0.4,0.1s-0.2,0.2-0.2,0.4H399v-2.8h0.3c0.1,0.2,0.1,0.3,0.2,0.4
		c0.1,0.1,0.2,0.1,0.4,0.1h9.1c0.2,0,0.3,0,0.4-0.1c0.1-0.1,0.2-0.2,0.2-0.4h0.3v2.8h-0.3c-0.1-0.2-0.1-0.3-0.2-0.4
		c-0.1-0.1-0.2-0.1-0.4-0.1H405.6z"/>
	<path fill="#FFFFFF" d="M414.8,82.6c1.4,0,2.6,0.4,3.5,1.1c1.1,0.9,1.7,2.1,1.7,3.6c0,1.5-0.6,2.6-1.7,3.5
		c-0.9,0.7-2.1,1.1-3.5,1.1c-1.4,0-2.6-0.4-3.5-1.1c-1.1-0.9-1.7-2.1-1.7-3.6c0-1.5,0.6-2.7,1.7-3.6
		C412.3,82.9,413.4,82.6,414.8,82.6z M414.8,84.2c-0.9,0-1.7,0.3-2.2,0.9c-0.5,0.5-0.8,1.2-0.8,2.1c0,0.8,0.3,1.5,0.8,2.1
		c0.6,0.6,1.3,0.9,2.2,0.9c0.9,0,1.7-0.3,2.2-0.9c0.5-0.5,0.8-1.2,0.8-2c0-0.9-0.3-1.6-0.8-2.1C416.5,84.5,415.8,84.2,414.8,84.2z"
		/>
	<path fill="#FFFFFF" d="M427.1,91.6l-3.2-5.8v5c0,0.2,0,0.3,0.1,0.4c0.1,0.1,0.2,0.2,0.4,0.2v0.2h-3v-0.2c0.2,0,0.3-0.1,0.4-0.2
		c0.1-0.1,0.1-0.2,0.1-0.4v-7.3c0-0.2,0-0.3-0.1-0.4c-0.1-0.1-0.2-0.2-0.4-0.2v-0.2h3.8V83c-0.2,0.1-0.4,0.2-0.4,0.5
		c0,0.2,0.1,0.5,0.3,0.8l2.2,4l2.2-4c0.3-0.4,0.4-0.7,0.4-0.9c0-0.2-0.1-0.4-0.4-0.4v-0.2h3.7V83c-0.2,0.1-0.3,0.1-0.4,0.2
		c-0.1,0.1-0.1,0.2-0.1,0.4v7.3c0,0.2,0,0.3,0.1,0.4c0.1,0.1,0.2,0.2,0.4,0.2v0.2H430v-0.2c0.2,0,0.3-0.1,0.4-0.2
		c0.1-0.1,0.1-0.2,0.1-0.4v-5L427.1,91.6z"/>
	<path fill="#FFFFFF" d="M439.7,82.6c1.4,0,2.6,0.4,3.5,1.1c1.1,0.9,1.7,2.1,1.7,3.6c0,1.5-0.6,2.6-1.7,3.5
		c-0.9,0.7-2.1,1.1-3.5,1.1c-1.4,0-2.6-0.4-3.5-1.1c-1.1-0.9-1.7-2.1-1.7-3.6c0-1.5,0.6-2.7,1.7-3.6
		C437.2,82.9,438.3,82.6,439.7,82.6z M439.7,84.2c-0.9,0-1.7,0.3-2.2,0.9c-0.5,0.5-0.8,1.2-0.8,2.1c0,0.8,0.3,1.5,0.8,2.1
		c0.6,0.6,1.3,0.9,2.2,0.9c0.9,0,1.7-0.3,2.2-0.9c0.5-0.5,0.8-1.2,0.8-2c0-0.9-0.3-1.6-0.8-2.1C441.4,84.5,440.7,84.2,439.7,84.2z"
		/>
	<path fill="#FFFFFF" d="M448.9,88v2.8c0,0.2,0,0.3,0.1,0.4s0.2,0.2,0.4,0.2v0.2h-3.1v-0.2c0.2,0,0.3-0.1,0.4-0.2
		c0.1-0.1,0.1-0.2,0.1-0.4v-7.3c0-0.2,0-0.3-0.1-0.4c-0.1-0.1-0.2-0.2-0.4-0.2v-0.2h5.8c0.8,0,1.3,0,1.7,0.1
		c0.4,0.1,0.8,0.2,1.1,0.4c0.6,0.4,1,1.1,1,2c0,0.7-0.2,1.3-0.6,1.7c-0.4,0.4-1,0.7-1.9,0.9l1.7,2.3c0.3,0.4,0.6,0.7,0.7,0.9
		c0.2,0.2,0.4,0.3,0.6,0.3v0.2h-3.7v-0.2c0.3-0.1,0.4-0.2,0.4-0.4c0-0.1-0.1-0.3-0.3-0.5l-1.8-2.5H448.9z M448.9,86.4h3.2
		c0.5,0,0.8-0.1,1.1-0.2c0.3-0.1,0.5-0.4,0.5-0.8c0-0.4-0.1-0.6-0.3-0.8c-0.2-0.1-0.6-0.2-1.2-0.2h-3.2V86.4z"/>
	<path fill="#FFFFFF" d="M460.1,88v2.8c0,0.2,0,0.3,0.1,0.4s0.2,0.2,0.4,0.2v0.2h-3.1v-0.2c0.2,0,0.3-0.1,0.4-0.2
		c0.1-0.1,0.1-0.2,0.1-0.4v-7.3c0-0.2,0-0.3-0.1-0.4c-0.1-0.1-0.2-0.2-0.4-0.2v-0.2h5.8c0.8,0,1.3,0,1.7,0.1
		c0.4,0.1,0.8,0.2,1.1,0.4c0.6,0.4,1,1.1,1,2c0,0.7-0.2,1.3-0.6,1.7c-0.4,0.4-1,0.7-1.9,0.9l1.7,2.3c0.3,0.4,0.6,0.7,0.7,0.9
		c0.2,0.2,0.4,0.3,0.6,0.3v0.2h-3.7v-0.2c0.3-0.1,0.4-0.2,0.4-0.4c0-0.1-0.1-0.3-0.3-0.5l-1.8-2.5H460.1z M460.1,86.4h3.2
		c0.5,0,0.8-0.1,1.1-0.2c0.3-0.1,0.5-0.4,0.5-0.8c0-0.4-0.1-0.6-0.3-0.8c-0.2-0.1-0.6-0.2-1.2-0.2h-3.2V86.4z"/>
	<path fill="#FFFFFF" d="M473.5,82.6c1.4,0,2.6,0.4,3.5,1.1c1.1,0.9,1.7,2.1,1.7,3.6c0,1.5-0.6,2.6-1.7,3.5
		c-0.9,0.7-2.1,1.1-3.5,1.1c-1.4,0-2.6-0.4-3.5-1.1c-1.1-0.9-1.7-2.1-1.7-3.6c0-1.5,0.6-2.7,1.7-3.6
		C470.9,82.9,472.1,82.6,473.5,82.6z M473.5,84.2c-0.9,0-1.7,0.3-2.2,0.9c-0.5,0.5-0.8,1.2-0.8,2.1c0,0.8,0.3,1.5,0.8,2.1
		c0.6,0.6,1.3,0.9,2.2,0.9c0.9,0,1.7-0.3,2.2-0.9c0.5-0.5,0.8-1.2,0.8-2c0-0.9-0.3-1.6-0.8-2.1C475.1,84.5,474.4,84.2,473.5,84.2z"
		/>
	<path fill="#FFFFFF" d="M486.6,85.5l-1.9,4.8c-0.1,0.2-0.1,0.4-0.1,0.6c0,0.3,0.2,0.5,0.5,0.5v0.2h-3.3v-0.2
		c0.3-0.1,0.5-0.3,0.5-0.5c0-0.1,0-0.3-0.1-0.6l-2.4-6.1c-0.2-0.5-0.3-0.8-0.5-0.9c-0.1-0.2-0.3-0.3-0.6-0.3v-0.2h3.4V83
		c-0.3,0.1-0.5,0.3-0.5,0.5c0,0.1,0.1,0.3,0.2,0.6l1.7,4.2l1.7-4.2c0.1-0.2,0.2-0.4,0.2-0.6c0-0.3-0.2-0.4-0.5-0.5v-0.2h4V83
		c-0.3,0.1-0.5,0.3-0.5,0.6c0,0.1,0,0.3,0.1,0.5l1.6,4.2l1.6-4.2c0.1-0.2,0.1-0.3,0.1-0.5c0-0.1,0-0.3-0.1-0.3
		c-0.1-0.1-0.2-0.1-0.4-0.2v-0.2h3.5V83c-0.3,0.1-0.4,0.2-0.6,0.4s-0.3,0.4-0.4,0.9l-2.4,6.1c-0.1,0.2-0.1,0.4-0.1,0.6
		c0,0.3,0.2,0.5,0.5,0.6v0.2h-3.4v-0.2c0.3-0.1,0.5-0.3,0.5-0.6c0-0.1-0.1-0.3-0.2-0.5L486.6,85.5z"/>
</g>
</svg>
